Normalized EMG Linear Envelopes
nRows=49
nColumns=17

endheader
time	        VM	        VL	        RF	       GRA	        TA	   ADDLONG	   SEMIMEM	      BFLH	        GM	        GL	       TFL	   GLUTMAX	   GLUTMED	      PIRI	    OBTINT	        QF	
2.1425	  0.052775	  0.076482	  0.242049	  0.275662	  0.526065	  0.175142	  0.156105	  0.088294	  0.154047	  0.152854	  0.203659	  0.014186	  0.069378	  0.273854	  0.787832	  0.096016	
2.143	  0.053169	  0.077193	  0.243709	  0.273695	  0.528239	  0.174408	  0.154437	  0.087450	  0.152138	  0.150201	  0.203889	  0.014289	  0.068409	  0.271935	  0.787118	  0.094715	
2.1435	  0.053571	  0.077906	  0.245382	  0.271724	  0.530355	  0.173678	  0.152760	  0.086596	  0.150226	  0.147568	  0.204123	  0.014390	  0.067447	  0.270022	  0.786520	  0.093425	
2.144	  0.053980	  0.078620	  0.247069	  0.269748	  0.532410	  0.172951	  0.151074	  0.085735	  0.148311	  0.144957	  0.204361	  0.014491	  0.066494	  0.268116	  0.786031	  0.092148	
2.1445	  0.054396	  0.079335	  0.248766	  0.267768	  0.534405	  0.172228	  0.149380	  0.084865	  0.146396	  0.142368	  0.204601	  0.014590	  0.065548	  0.266219	  0.785645	  0.090883	
2.145	  0.054820	  0.080050	  0.250474	  0.265786	  0.536337	  0.171509	  0.147680	  0.083989	  0.144480	  0.139800	  0.204844	  0.014689	  0.064611	  0.264331	  0.785353	  0.089631	
2.1455	  0.055250	  0.080765	  0.252191	  0.263800	  0.538205	  0.170795	  0.145973	  0.083106	  0.142564	  0.137255	  0.205090	  0.014786	  0.063682	  0.262453	  0.785148	  0.088391	
2.146	  0.055688	  0.081478	  0.253917	  0.261813	  0.540009	  0.170084	  0.144260	  0.082217	  0.140649	  0.134733	  0.205338	  0.014882	  0.062762	  0.260586	  0.785022	  0.087165	
2.1465	  0.056133	  0.082191	  0.255649	  0.259824	  0.541747	  0.169378	  0.142544	  0.081323	  0.138736	  0.132235	  0.205588	  0.014977	  0.061850	  0.258732	  0.784967	  0.085952	
2.147	  0.056584	  0.082901	  0.257387	  0.257834	  0.543416	  0.168677	  0.140823	  0.080424	  0.136826	  0.129760	  0.205841	  0.015071	  0.060948	  0.256891	  0.784975	  0.084753	
2.1475	  0.057043	  0.083610	  0.259129	  0.255843	  0.545017	  0.167979	  0.139099	  0.079521	  0.134919	  0.127309	  0.206095	  0.015163	  0.060054	  0.255066	  0.785037	  0.083568	
2.148	  0.057508	  0.084315	  0.260875	  0.253851	  0.546548	  0.167286	  0.137373	  0.078614	  0.133017	  0.124882	  0.206351	  0.015255	  0.059170	  0.253256	  0.785146	  0.082397	
2.1485	  0.057980	  0.085017	  0.262623	  0.251859	  0.548007	  0.166597	  0.135645	  0.077704	  0.131119	  0.122481	  0.206609	  0.015345	  0.058295	  0.251464	  0.785294	  0.081241	
2.149	  0.058459	  0.085715	  0.264373	  0.249866	  0.549394	  0.165912	  0.133917	  0.076791	  0.129228	  0.120105	  0.206869	  0.015434	  0.057429	  0.249689	  0.785471	  0.080099	
2.1495	  0.058944	  0.086409	  0.266123	  0.247873	  0.550708	  0.165231	  0.132188	  0.075876	  0.127342	  0.117755	  0.207131	  0.015521	  0.056573	  0.247933	  0.785670	  0.078971	
2.15	  0.059436	  0.087098	  0.267872	  0.245880	  0.551948	  0.164554	  0.130460	  0.074960	  0.125464	  0.115432	  0.207395	  0.015607	  0.055726	  0.246197	  0.785882	  0.077859	
2.1505	  0.059935	  0.087782	  0.269619	  0.243888	  0.553115	  0.163880	  0.128732	  0.074043	  0.123594	  0.113134	  0.207661	  0.015692	  0.054889	  0.244482	  0.786099	  0.076762	
2.151	  0.060440	  0.088460	  0.271364	  0.241896	  0.554206	  0.163209	  0.127006	  0.073126	  0.121732	  0.110864	  0.207928	  0.015776	  0.054062	  0.242788	  0.786312	  0.075680	
2.1515	  0.060951	  0.089132	  0.273105	  0.239905	  0.555221	  0.162542	  0.125282	  0.072208	  0.119880	  0.108620	  0.208197	  0.015858	  0.053244	  0.241117	  0.786514	  0.074613	
2.152	  0.061468	  0.089797	  0.274843	  0.237914	  0.556159	  0.161878	  0.123561	  0.071291	  0.118037	  0.106404	  0.208466	  0.015939	  0.052436	  0.239470	  0.786694	  0.073561	
2.1525	  0.061992	  0.090455	  0.276576	  0.235925	  0.557020	  0.161216	  0.121843	  0.070375	  0.116205	  0.104216	  0.208736	  0.016019	  0.051639	  0.237847	  0.786844	  0.072524	
2.153	  0.062521	  0.091105	  0.278304	  0.233936	  0.557801	  0.160558	  0.120129	  0.069460	  0.114384	  0.102055	  0.209007	  0.016097	  0.050850	  0.236251	  0.786956	  0.071503	
2.1535	  0.063057	  0.091748	  0.280026	  0.231948	  0.558503	  0.159901	  0.118418	  0.068547	  0.112574	  0.099923	  0.209277	  0.016173	  0.050072	  0.234681	  0.787019	  0.070498	
2.154	  0.063599	  0.092383	  0.281743	  0.229962	  0.559124	  0.159248	  0.116712	  0.067636	  0.110777	  0.097819	  0.209547	  0.016248	  0.049303	  0.233139	  0.787024	  0.069508	
2.1545	  0.064146	  0.093009	  0.283452	  0.227977	  0.559665	  0.158596	  0.115011	  0.066728	  0.108992	  0.095743	  0.209817	  0.016321	  0.048544	  0.231626	  0.786962	  0.068534	
2.155	  0.064699	  0.093627	  0.285153	  0.225993	  0.560126	  0.157947	  0.113315	  0.065823	  0.107220	  0.093696	  0.210084	  0.016393	  0.047795	  0.230143	  0.786823	  0.067575	
2.1555	  0.065257	  0.094235	  0.286847	  0.224011	  0.560505	  0.157300	  0.111624	  0.064920	  0.105461	  0.091678	  0.210350	  0.016463	  0.047055	  0.228692	  0.786598	  0.066633	
2.156	  0.065821	  0.094835	  0.288532	  0.222031	  0.560803	  0.156655	  0.109940	  0.064022	  0.103716	  0.089689	  0.210613	  0.016532	  0.046325	  0.227273	  0.786278	  0.065707	
2.1565	  0.066389	  0.095426	  0.290207	  0.220054	  0.561019	  0.156011	  0.108262	  0.063128	  0.101986	  0.087728	  0.210872	  0.016599	  0.045605	  0.225887	  0.785852	  0.064797	
2.157	  0.066963	  0.096007	  0.291872	  0.218080	  0.561154	  0.155369	  0.106590	  0.062237	  0.100270	  0.085797	  0.211128	  0.016664	  0.044893	  0.224536	  0.785314	  0.063903	
2.1575	  0.067540	  0.096578	  0.293526	  0.216109	  0.561208	  0.154729	  0.104926	  0.061352	  0.098569	  0.083895	  0.211378	  0.016728	  0.044191	  0.223221	  0.784654	  0.063027	
2.158	  0.068123	  0.097140	  0.295167	  0.214141	  0.561181	  0.154089	  0.103269	  0.060471	  0.096883	  0.082022	  0.211624	  0.016791	  0.043499	  0.221941	  0.783866	  0.062166	
2.1585	  0.068709	  0.097691	  0.296796	  0.212178	  0.561075	  0.153450	  0.101620	  0.059595	  0.095212	  0.080178	  0.211863	  0.016852	  0.042815	  0.220699	  0.782942	  0.061323	
2.159	  0.069300	  0.098231	  0.298412	  0.210219	  0.560891	  0.152812	  0.099980	  0.058725	  0.093558	  0.078364	  0.212096	  0.016911	  0.042140	  0.219494	  0.781878	  0.060496	
2.1595	  0.069893	  0.098761	  0.300012	  0.208264	  0.560630	  0.152175	  0.098348	  0.057860	  0.091919	  0.076578	  0.212322	  0.016969	  0.041475	  0.218328	  0.780667	  0.059686	
2.16	  0.070491	  0.099280	  0.301598	  0.206315	  0.560293	  0.151538	  0.096725	  0.057002	  0.090297	  0.074821	  0.212540	  0.017025	  0.040818	  0.217201	  0.779308	  0.058894	
2.1605	  0.071091	  0.099787	  0.303167	  0.204372	  0.559883	  0.150901	  0.095111	  0.056150	  0.088691	  0.073094	  0.212750	  0.017080	  0.040171	  0.216113	  0.777798	  0.058118	
2.161	  0.071694	  0.100283	  0.304719	  0.202434	  0.559400	  0.150265	  0.093507	  0.055304	  0.087102	  0.071395	  0.212951	  0.017133	  0.039532	  0.215065	  0.776133	  0.057359	
2.1615	  0.072299	  0.100767	  0.306254	  0.200504	  0.558846	  0.149629	  0.091913	  0.054466	  0.085529	  0.069726	  0.213143	  0.017185	  0.038902	  0.214058	  0.774313	  0.056617	
2.162	  0.072907	  0.101239	  0.307771	  0.198582	  0.558220	  0.148994	  0.090329	  0.053634	  0.083974	  0.068085	  0.213326	  0.017236	  0.038281	  0.213091	  0.772338	  0.055893	
2.1625	  0.073516	  0.101699	  0.309268	  0.196668	  0.557526	  0.148359	  0.088756	  0.052810	  0.082436	  0.066472	  0.213500	  0.017285	  0.037669	  0.212166	  0.770206	  0.055185	
2.163	  0.074126	  0.102147	  0.310745	  0.194764	  0.556762	  0.147724	  0.087193	  0.051993	  0.080915	  0.064888	  0.213664	  0.017332	  0.037067	  0.211282	  0.767921	  0.054494	
2.1635	  0.074738	  0.102582	  0.312201	  0.192870	  0.555930	  0.147089	  0.085642	  0.051185	  0.079412	  0.063332	  0.213819	  0.017379	  0.036473	  0.210439	  0.765483	  0.053820	
2.164	  0.075350	  0.103006	  0.313635	  0.190986	  0.555030	  0.146454	  0.084102	  0.050384	  0.077926	  0.061805	  0.213965	  0.017424	  0.035888	  0.209639	  0.762896	  0.053163	
2.1645	  0.075963	  0.103416	  0.315046	  0.189115	  0.554062	  0.145820	  0.082573	  0.049592	  0.076458	  0.060306	  0.214101	  0.017467	  0.035313	  0.208880	  0.760165	  0.052523	
2.165	  0.076576	  0.103814	  0.316433	  0.187256	  0.553028	  0.145186	  0.081056	  0.048808	  0.075007	  0.058834	  0.214227	  0.017510	  0.034746	  0.208163	  0.757292	  0.051900	
2.1655	  0.077188	  0.104199	  0.317794	  0.185409	  0.551927	  0.144552	  0.079551	  0.048032	  0.073575	  0.057390	  0.214345	  0.017551	  0.034189	  0.207487	  0.754283	  0.051293	
2.166	  0.077799	  0.104571	  0.319130	  0.183577	  0.550760	  0.143919	  0.078059	  0.047266	  0.072160	  0.055974	  0.214453	  0.017591	  0.033640	  0.206854	  0.751143	  0.050702	
2.1665	  0.078409	  0.104931	  0.320439	  0.181759	  0.549527	  0.143286	  0.076579	  0.046508	  0.070763	  0.054585	  0.214551	  0.017629	  0.033101	  0.206263	  0.747877	  0.050129	
